# File created by Blade
# Date/Time:  Thu Jan 22 19:01:23 2015
#---------------------------------------------------------
:version 1.10
:name HOM
:units
  mass 1.0
  length 1.000000
  angle deg
:documentation
     Acclaim Skeleton File
:root
   axis xyz
   order TX TY TZ RX RY RZ
   position 0.000000 0.000000 0.000000
   orientation 0 0 0
:bonedata
   begin
      id 1
      name RightUpLeg_dum
      direction -1.000000 0.000000 0.000000
      length 4.478084
      axis 0.0 0.0 0.0 xyz
   end
   begin
      id 2
      name LeftUpLeg_dum
      direction 1.000000 0.000000 0.000000
      length 4.478084
      axis 0.0 0.0 0.0 xyz
   end
   begin
      id 3
      name Spine_dum
      direction 0.000000 1.000000 0.000000
      length 6.068208
      axis 0.0 0.0 0.0 xyz
   end
   begin
      id 4
      name RightUpLeg
      direction 0.000000 -1.000000 0.000000
      length 16.405774
      axis 0.0 0.0 0.0 xyz
      dof rx ry rz
   end
   begin
      id 5
      name RightLeg
      direction 0.000000 -1.000000 0.000000
      length 14.644143
      axis 0.0 0.0 0.0 xyz
      dof rx ry rz
   end
   begin
      id 6
      name RightFoot
      direction 0.000000 -0.258819 0.965926
      length 5.806150
      axis 15.0 0.0 0.0 xyz
      dof rx ry rz
   end
   begin
      id 7
      name RightToeBase
      direction 0.000000 0.000000 1.000000
      length 2.952750
      axis 0.0 0.0 0.0 xyz
      dof rx ry rz
   end
   begin
      id 8
      name LeftUpLeg
      direction 0.000000 -1.000000 0.000000
      length 16.405774
      axis 0.0 0.0 0.0 xyz
      dof rx ry rz
   end
   begin
      id 9
      name LeftLeg
      direction 0.000000 -1.000000 0.000000
      length 14.644143
      axis 0.0 0.0 0.0 xyz
      dof rx ry rz
   end
   begin
      id 10
      name LeftFoot
      direction 0.000000 -0.258819 0.965926
      length 5.806150
      axis 15.0 0.0 0.0 xyz
      dof rx ry rz
   end
   begin
      id 11
      name LeftToeBase
      direction 0.000000 0.000000 1.000000
      length 2.952750
      axis 0.0 0.0 0.0 xyz
      dof rx ry rz
   end
   begin
      id 12
      name Spine
      direction 0.000000 1.000000 0.000000
      length 0.000000
      axis 0.0 0.0 0.0 xyz
      dof rx ry rz
   end
   begin
      id 13
      name Spine_dum1
      direction 0.000000 1.000000 0.000000
      length 10.013923
      axis 0.0 0.0 0.0 xyz
   end
   begin
      id 14
      name Spine_dum2
      direction 0.000000 1.000000 0.000000
      length 10.013923
      axis 0.0 0.0 0.0 xyz
   end
   begin
      id 15
      name Spine_dum3
      direction 0.000000 1.000000 0.000000
      length 15.777476
      axis 0.0 0.0 0.0 xyz
   end
   begin
      id 16
      name RightShoulder
      direction -1.000000 0.000000 0.000000
      length 7.190220
      axis 0.0 0.0 90.0 xyz
      dof rx ry rz
   end
   begin
      id 17
      name RightArm
      direction -1.000000 0.000000 0.000000
      length 10.177469
      axis 0.0 0.0 90.0 xyz
      dof rx ry rz
   end
   begin
      id 18
      name RightForeArm
      direction -1.000000 0.000000 0.000000
      length 8.392114
      axis 0.0 0.0 90.0 xyz
      dof ry rz rx
   end
   begin
      id 19
      name RightHand
      direction -1.000000 0.000000 0.000000
      length 0.000000
      axis 0.0 0.0 90.0 xyz
      dof rx ry rz
   end
   begin
      id 20
      name RightHand_dum1
      direction -1.000000 0.000000 0.000000
      length 3.937000
      axis 0.0 0.0 90.0 xyz
   end
   begin
      id 21
      name RightHand_dum2
      direction 0.000000 0.000000 0.000000
      length 0.000000
      axis 0.0 0.0 90.0 xyz
   end
   begin
      id 22
      name RightHandThumb1
      direction 0.000000 0.000000 1.000000
      length 3.937000
      axis 0.0 0.0 90.0 xyz
      dof rx rz ry
   end
   begin
      id 23
      name LeftShoulder
      direction 1.000000 0.000000 0.000000
      length 7.190220
      axis 0.0 0.0 -90.0 xyz
      dof rx ry rz
   end
   begin
      id 24
      name LeftArm
      direction 1.000000 0.000000 0.000000
      length 10.177469
      axis 0.0 0.0 -90.0 xyz
      dof rx ry rz
   end
   begin
      id 25
      name LeftForeArm
      direction 1.000000 0.000000 0.000000
      length 8.392114
      axis 0.0 0.0 -90.0 xyz
      dof ry rz rx
   end
   begin
      id 26
      name LeftHand
      direction 1.000000 0.000000 0.000000
      length 0.000000
      axis 0.0 0.0 -90.0 xyz
      dof rx ry rz
   end
   begin
      id 27
      name LeftHand_dum1
      direction 1.000000 0.000000 0.000000
      length 3.937000
      axis 0.0 0.0 -90.0 xyz
   end
   begin
      id 28
      name LeftHand_dum2
      direction 0.000000 0.000000 0.000000
      length 0.000000
      axis 0.0 0.0 -90.0 xyz
   end
   begin
      id 29
      name LeftHandThumb1
      direction 0.000000 0.000000 1.000000
      length 3.937000
      axis 0.0 0.0 -90.0 xyz
      dof rx rz ry
   end
   begin
      id 30
      name Head
      direction 0.000000 1.000000 0.000000
      length 4.527550
      axis 0.0 0.0 0.0 xyz
      dof rx ry rz
   end
:hierarchy
   begin
      root RightUpLeg_dum LeftUpLeg_dum Spine_dum
      RightUpLeg_dum RightUpLeg
      LeftUpLeg_dum LeftUpLeg
      Spine_dum Spine
      RightUpLeg RightLeg
      RightLeg RightFoot
      RightFoot RightToeBase
      LeftUpLeg LeftLeg
      LeftLeg LeftFoot
      LeftFoot LeftToeBase
      Spine Spine_dum1 Spine_dum2 Spine_dum3
      Spine_dum1 RightShoulder
      Spine_dum2 LeftShoulder
      Spine_dum3 Head
      RightShoulder RightArm
      RightArm RightForeArm
      RightForeArm RightHand
      RightHand RightHand_dum1 RightHand_dum2
      RightHand_dum2 RightHandThumb1
      LeftShoulder LeftArm
      LeftArm LeftForeArm
      LeftForeArm LeftHand
      LeftHand LeftHand_dum1 LeftHand_dum2
      LeftHand_dum2 LeftHandThumb1
   end

# File created by Blade
# Date/Time:  Thu Jan 22 19:01:15 2015
# Frame Rate: 120.000 fps
#------------------------------------------------------
:FULLY-SPECIFIED
:DEGREES
198
root -2.843784 33.171234 -0.473277 7.497276 -1.725780 2.795791
RightUpLeg -0.986824 -7.480815 -2.135929
RightLeg -0.524496 -0.000000 0.000000
RightFoot -11.269152 -2.778498 3.861210
RightToeBase 5.808090 -0.000000 -0.000000
LeftUpLeg -1.357529 4.627524 0.779284
LeftLeg 1.443390 -0.000000 -0.000000
LeftFoot -10.407905 1.245155 -10.136189
LeftToeBase 7.459761 -0.000000 -0.000000
Spine -8.647079 -1.755274 -1.574454
RightShoulder -19.689678 -18.990634 -24.704747
RightArm 21.382633 27.372693 39.404223
RightForeArm -9.485875 -0.000000 10.709038
RightHand 6.203193 -0.000000 12.153777
RightHandThumb1 -24.326973 -0.000000 -32.862282
LeftShoulder -25.379677 9.068173 28.312376
LeftArm 15.085867 -26.380803 -35.836605
LeftForeArm 29.815940 -0.000000 2.933426
LeftHand -6.439554 -0.000000 -9.464530
LeftHandThumb1 -26.253704 0.000000 33.147579
Head -0.809639 3.537909 -0.462320
199
root -2.844942 33.171368 -0.473744 7.496490 -1.720854 2.795392
RightUpLeg -0.987386 -7.494195 -2.130017
RightLeg -0.530402 -0.000000 0.000000
RightFoot -11.290050 -2.750505 3.913303
RightToeBase 5.635901 -0.000000 -0.000000
LeftUpLeg -1.357733 4.606372 0.783345
LeftLeg 1.442330 -0.000000 -0.000000
LeftFoot -10.405383 1.253718 -10.154415
LeftToeBase 7.430778 -0.000000 -0.000000
Spine -8.650056 -1.763334 -1.578627
RightShoulder -19.699165 -19.018104 -24.693803
RightArm 21.407686 27.340718 39.441225
RightForeArm -9.507873 -0.000000 10.714088
RightHand 6.196364 -0.000000 12.238741
RightHandThumb1 -24.326973 -0.000000 -32.862282
LeftShoulder -25.391405 9.093875 28.281088
LeftArm 15.101065 -26.344570 -35.845550
LeftForeArm 29.812242 -0.000000 2.927224
LeftHand -6.409011 -0.000000 -9.484157
LeftHandThumb1 -26.253704 0.000000 33.147579
Head -0.806174 3.533038 -0.464463
200
root -2.845400 33.171230 -0.474348 7.494784 -1.721952 2.797173
RightUpLeg -0.987040 -7.509296 -2.130464
RightLeg -0.532848 -0.000000 0.000000
RightFoot -11.279551 -2.714902 3.940326
RightToeBase 5.608301 -0.000000 -0.000000
LeftUpLeg -1.359598 4.613358 0.782845
LeftLeg 1.448941 -0.000000 -0.000000
LeftFoot -10.410038 1.241886 -10.147930
LeftToeBase 7.464015 -0.000000 -0.000000
Spine -8.653558 -1.766595 -1.585831
RightShoulder -19.695349 -19.023143 -24.684281
RightArm 21.408832 27.293386 39.463512
RightForeArm -9.536297 0.000000 10.723246
RightHand 6.191902 -0.000000 12.277514
RightHandThumb1 -24.326973 -0.000000 -32.862282
LeftShoulder -25.398803 9.101994 28.276517
LeftArm 15.097342 -26.334972 -35.881684
LeftForeArm 29.820623 -0.000000 2.943422
LeftHand -6.409302 -0.000000 -9.475268
LeftHandThumb1 -26.253704 0.000000 33.147579
Head -0.802087 3.537897 -0.466748
201
root -2.846266 33.171278 -0.474956 7.497766 -1.715437 2.797273
RightUpLeg -0.990747 -7.502095 -2.129348
RightLeg -0.519788 -0.000000 0.000000
RightFoot -11.273980 -2.780158 3.846008
RightToeBase 5.800950 -0.000000 -0.000000
LeftUpLeg -1.362560 4.601404 0.784695
LeftLeg 1.446748 -0.000000 -0.000000
LeftFoot -10.392639 1.233258 -10.198130
LeftToeBase 7.342691 -0.000000 -0.000000
Spine -8.662685 -1.769121 -1.589697
RightShoulder -19.692639 -19.032676 -24.673663
RightArm 21.401702 27.259002 39.477266
RightForeArm -9.538603 -0.000000 10.732936
RightHand 6.210133 0.000000 12.313043
RightHandThumb1 -24.326973 -0.000000 -32.862282
LeftShoulder -25.403889 9.125801 28.262690
LeftArm 15.120451 -26.317410 -35.916986
LeftForeArm 29.832230 -0.000000 2.933771
LeftHand -6.397920 -0.000000 -9.497384
LeftHandThumb1 -26.253704 0.000000 33.147579
Head -0.797166 3.521680 -0.475115
202
root -2.847176 33.171333 -0.475554 7.497477 -1.714755 2.796191
RightUpLeg -0.989865 -7.501418 -2.127605
RightLeg -0.521206 -0.000000 0.000000
RightFoot -11.276027 -2.777238 3.849385
RightToeBase 5.831792 -0.000000 -0.000000
LeftUpLeg -1.365384 4.606834 0.786717
LeftLeg 1.449945 -0.000000 -0.000000
LeftFoot -10.408970 1.248775 -10.135249
LeftToeBase 7.407757 -0.000000 -0.000000
Spine -8.665874 -1.773457 -1.593937
RightShoulder -19.691748 -19.029115 -24.661467
RightArm 21.397935 27.198869 39.477842
RightForeArm -9.491492 0.000000 10.740247
RightHand 6.190554 0.000000 12.318908
RightHandThumb1 -24.326973 -0.000000 -32.862282
LeftShoulder -25.405096 9.115774 28.261389
LeftArm 15.097932 -26.291854 -35.929894
LeftForeArm 29.831251 -0.000000 2.946391
LeftHand -6.393981 -0.000000 -9.503430
LeftHandThumb1 -26.253704 0.000000 33.147579
Head -0.800852 3.522014 -0.478302
203
root -2.847029 33.170943 -0.476055 7.494640 -1.714470 2.800577
RightUpLeg -0.988955 -7.512297 -2.131136
RightLeg -0.523197 -0.000000 0.000000
RightFoot -11.270219 -2.742069 3.887668
RightToeBase 5.724087 -0.000000 -0.000000
LeftUpLeg -1.368754 4.610220 0.783623
LeftLeg 1.463198 -0.000000 -0.000000
LeftFoot -10.399819 1.221069 -10.188190
LeftToeBase 7.329266 -0.000000 -0.000000
Spine -8.666032 -1.769729 -1.602939
RightShoulder -19.692392 -19.046584 -24.656042
RightArm 21.394205 27.149507 39.490873
RightForeArm -9.435245 0.000000 10.756574
RightHand 6.186886 -0.000000 12.416547
RightHandThumb1 -24.326973 -0.000000 -32.862282
LeftShoulder -25.407179 9.124551 28.250987
LeftArm 15.105342 -26.263154 -35.948719
LeftForeArm 29.829228 -0.000000 2.946864
LeftHand -6.339621 -0.000000 -9.580851
LeftHandThumb1 -26.253704 0.000000 33.147579
Head -0.800586 3.508821 -0.479748
204
root -2.847552 33.170792 -0.476942 7.492783 -1.719674 2.795451
RightUpLeg -0.992337 -7.520369 -2.125662
RightLeg -0.520534 -0.000000 0.000000
RightFoot -11.304332 -2.721965 3.929980
RightToeBase 5.644080 -0.000000 -0.000000
LeftUpLeg -1.366817 4.601372 0.789411
LeftLeg 1.461201 -0.000000 -0.000000
LeftFoot -10.423467 1.252435 -10.139840
LeftToeBase 7.442085 -0.000000 -0.000000
Spine -8.667540 -1.764289 -1.599397
RightShoulder -19.685865 -19.064980 -24.645418
RightArm 21.399417 27.114760 39.493499
RightForeArm -9.430266 -0.000000 10.749851
RightHand 6.207525 -0.000000 12.407378
RightHandThumb1 -24.326973 -0.000000 -32.862282
LeftShoulder -25.407829 9.125074 28.250518
LeftArm 15.096411 -26.229071 -35.975035
LeftForeArm 29.852915 -0.000000 2.958303
LeftHand -6.408049 -0.000000 -9.546397
LeftHandThumb1 -26.253704 0.000000 33.147579
Head -0.798469 3.505355 -0.493051
205
root -2.847709 33.170729 -0.478179 7.489876 -1.716387 2.795037
RightUpLeg -0.991781 -7.519698 -2.124456
RightLeg -0.523301 -0.000000 0.000000
RightFoot -11.288830 -2.703062 3.943479
RightToeBase 5.588401 -0.000000 -0.000000
LeftUpLeg -1.371139 4.592044 0.791513
LeftLeg 1.472209 -0.000000 -0.000000
LeftFoot -10.425563 1.247265 -10.146549
LeftToeBase 7.403099 -0.000000 -0.000000
Spine -8.664706 -1.765883 -1.596525
RightShoulder -19.675899 -19.050610 -24.636861
RightArm 21.381171 27.052703 39.460883
RightForeArm -9.453063 0.000000 10.724574
RightHand 6.187704 -0.000000 12.262045
RightHandThumb1 -24.326973 -0.000000 -32.862282
LeftShoulder -25.405603 9.132540 28.231778
LeftArm 15.094544 -26.236918 -35.996813
LeftForeArm 29.899440 -0.000000 2.968398
LeftHand -6.343823 -0.000000 -9.551115
LeftHandThumb1 -26.253704 0.000000 33.147579
Head -0.800767 3.512572 -0.507713
206
root -2.848715 33.170590 -0.480177 7.493163 -1.728129 2.793012
RightUpLeg -1.011503 -7.492482 -2.123327
RightLeg -0.487301 -0.000000 0.000000
RightFoot -11.302687 -2.762347 3.853043
RightToeBase 5.807415 -0.000000 -0.000000
LeftUpLeg -1.382045 4.615250 0.793768
LeftLeg 1.485037 -0.000000 -0.000000
LeftFoot -10.432119 1.231389 -10.167890
LeftToeBase 7.421777 -0.000000 -0.000000
Spine -8.666932 -1.747862 -1.601096
RightShoulder -19.679658 -19.070901 -24.623082
RightArm 21.382237 27.015326 39.464115
RightForeArm -9.484697 0.000000 10.739499
RightHand 6.180187 -0.000000 12.291603
RightHandThumb1 -24.326973 -0.000000 -32.862282
LeftShoulder -25.394445 9.136712 28.220962
LeftArm 15.089320 -26.226890 -36.007698
LeftForeArm 29.898382 0.000000 2.975472
LeftHand -6.361501 0.000000 -9.516352
LeftHandThumb1 -26.253704 0.000000 33.147579
Head -0.809894 3.493307 -0.513612
207
root -2.848611 33.170662 -0.481764 7.491852 -1.721758 2.794646
RightUpLeg -1.016405 -7.509065 -2.121848
RightLeg -0.485126 -0.000000 0.000000
RightFoot -11.327809 -2.730571 3.912772
RightToeBase 5.674851 -0.000000 -0.000000
LeftUpLeg -1.393071 4.599207 0.793942
LeftLeg 1.504059 -0.000000 -0.000000
LeftFoot -10.423881 1.220538 -10.211055
LeftToeBase 7.328600 -0.000000 -0.000000
Spine -8.657295 -1.752253 -1.607044
RightShoulder -19.683316 -19.061719 -24.609268
RightArm 21.382945 26.966831 39.451482
RightForeArm -9.494044 0.000000 10.725807
RightHand 6.174676 -0.000000 12.280739
RightHandThumb1 -24.326973 -0.000000 -32.862282
LeftShoulder -25.398424 9.133422 28.219023
LeftArm 15.082349 -26.207704 -36.028599
LeftForeArm 29.908292 -0.000000 2.993943
LeftHand -6.338870 -0.000000 -9.512449
LeftHandThumb1 -26.253704 0.000000 33.147579
Head -0.838291 3.490746 -0.511528
208
root -2.848244 33.170135 -0.483242 7.482945 -1.725277 2.797952
RightUpLeg -1.014081 -7.498760 -2.129419
RightLeg -0.468425 -0.000000 0.000000
RightFoot -11.312924 -2.761826 3.839334
RightToeBase 5.741400 -0.000000 -0.000000
LeftUpLeg -1.397604 4.592604 0.788879
LeftLeg 1.528061 -0.000000 -0.000000
LeftFoot -10.458253 1.248553 -10.170513
LeftToeBase 7.414232 -0.000000 -0.000000
Spine -8.641152 -1.750379 -1.613310
RightShoulder -19.685944 -19.063171 -24.602186
RightArm 21.412106 26.928321 39.463282
RightForeArm -9.566995 -0.000000 10.702260
RightHand 6.150626 0.000000 12.182994
RightHandThumb1 -24.326973 -0.000000 -32.862282
LeftShoulder -25.400200 9.135470 28.212708
LeftArm 15.075530 -26.179728 -36.039063
LeftForeArm 29.898520 -0.000000 3.011550
LeftHand -6.353823 -0.000000 -9.512075
LeftHandThumb1 -26.253704 0.000000 33.147579
Head -0.858084 3.497004 -0.517199
209
root -2.848204 33.170174 -0.486596 7.479658 -1.715271 2.801765
RightUpLeg -1.027176 -7.512637 -2.132382
RightLeg -0.441608 -0.000000 0.000000
RightFoot -11.324748 -2.756508 3.843916
RightToeBase 5.784530 -0.000000 -0.000000
LeftUpLeg -1.418824 4.580655 0.786732
LeftLeg 1.565701 -0.000000 -0.000000
LeftFoot -10.475641 1.252255 -10.157033
LeftToeBase 7.392948 -0.000000 -0.000000
Spine -8.624175 -1.760461 -1.624629
RightShoulder -19.688446 -19.087145 -24.593284
RightArm 21.415554 26.966829 39.509939
RightForeArm -9.592536 -0.000000 10.734080
RightHand 6.257596 -0.000000 12.254499
RightHandThumb1 -24.326973 -0.000000 -32.862282
LeftShoulder -25.400550 9.144790 28.213828
LeftArm 15.079090 -26.172154 -36.062653
LeftForeArm 29.906236 0.000000 3.021248
LeftHand -6.358558 -0.000000 -9.520741
LeftHandThumb1 -26.253704 0.000000 33.147579
Head -0.884411 3.502736 -0.503247
